<svg width="97" height="99" viewBox="0 0 97 99" fill="none" xmlns="http://www.w3.org/2000/svg">
<path fill-rule="evenodd" clip-rule="evenodd" d="M37.9121 18.5884C37.29 18.6309 36.668 18.6887 36.0466 18.7621C28.3805 19.667 21.1719 22.8852 15.38 27.9883C9.5882 33.0915 5.48788 39.8375 3.62479 47.3285C1.86738 54.3947 2.17921 61.8076 4.50863 68.687C4.53989 69.0242 4.65485 69.3371 4.83253 69.6047C4.87145 69.7107 4.91086 69.8165 4.95075 69.9222C7.67731 77.1439 12.5386 83.364 18.8876 87.7546C24.5272 91.6546 31.1031 93.9468 37.9123 94.4118C38.2211 94.5065 38.5516 94.5266 38.8744 94.4652C39.4123 94.4883 39.9514 94.4999 40.4915 94.5001C41.596 94.5003 42.4917 93.6051 42.492 92.5006C42.4923 91.396 41.5971 90.5003 40.4925 90.5001C40.1991 90.5 39.906 90.4961 39.6133 90.4885C35.8826 84.2786 33.2152 77.5229 31.6907 70.5H51.4328C52.4012 70.5 53.2305 69.8062 53.4014 68.853C54.1294 64.793 54.5 60.6597 54.5 56.5C54.5 53.1412 54.2583 49.7997 53.7821 46.5H72.9975C74.4112 51.0939 74.8417 55.9584 74.2318 60.7727C74.093 61.8685 74.8689 62.8694 75.9647 63.0082C77.0605 63.147 78.0613 62.3712 78.2001 61.2754C79.1702 53.6173 77.785 45.8454 74.2288 38.994C70.6727 32.1427 65.1143 26.5368 58.2934 22.9226C53.4422 20.352 48.116 18.8757 42.6864 18.5629C42.4225 18.4952 42.1451 18.4811 41.872 18.5248C40.875 18.4888 39.8751 18.492 38.8746 18.5349C38.5517 18.4734 38.2209 18.4935 37.9121 18.5884ZM41.0714 22.5048C40.5859 22.4967 40.0997 22.4989 39.6133 22.5116C35.8826 28.7215 33.2152 35.4772 31.6907 42.5H48.9981C47.4731 35.4746 44.8042 28.7165 41.0714 22.5048ZM45.9285 22.936C49.2856 29.08 51.6928 35.6765 53.0857 42.5H71.4852C71.2319 41.9395 70.963 41.3848 70.6786 40.8368C67.4967 34.7066 62.5234 29.6909 56.4205 26.4571C53.1202 24.7083 49.5741 23.5255 45.9285 22.936ZM34.7289 90.0065C31.3882 83.8788 28.9916 77.3023 27.6031 70.5H9.51748C12.0538 76.1134 16.0742 80.9457 21.1627 84.4646C25.2471 87.2891 29.8804 89.1711 34.7289 90.0065ZM8.0052 66.5H26.9067C26.4305 63.2004 26.1888 59.8588 26.1888 56.5C26.1888 53.1412 26.4305 49.7997 26.9067 46.5H8.00522C7.823 47.0922 7.65665 47.6904 7.50653 48.294C6.01083 54.3079 6.19031 60.6025 8.0052 66.5ZM9.5175 42.5H27.6031C28.9916 35.6978 31.3882 29.1213 34.7289 22.9937C28.5398 24.0598 22.7541 26.8223 18.0244 30.9896C14.3867 34.1947 11.4948 38.1241 9.5175 42.5ZM30.1888 56.5C30.1888 53.1391 30.4454 49.7965 30.9508 46.5H49.7381C50.2434 49.7965 50.5 53.1391 50.5 56.5C50.5 59.861 50.2434 63.2035 49.7381 66.5H30.9508C30.4454 63.2035 30.1888 59.861 30.1888 56.5Z" fill="#CCE9FF"/>
<path d="M59.0858 75.0858C59.8668 74.3048 61.1332 74.3048 61.9142 75.0858L70.5 83.6716L79.0858 75.0858C79.8668 74.3048 81.1332 74.3048 81.9142 75.0858C82.6953 75.8669 82.6953 77.1332 81.9142 77.9142L73.3284 86.5L81.9142 95.0858C82.6953 95.8669 82.6953 97.1332 81.9142 97.9142C81.1332 98.6953 79.8668 98.6953 79.0858 97.9142L70.5 89.3285L61.9142 97.9142C61.1332 98.6953 59.8668 98.6953 59.0858 97.9142C58.3047 97.1332 58.3047 95.8669 59.0858 95.0858L67.6716 86.5L59.0858 77.9142C58.3047 77.1332 58.3047 75.8669 59.0858 75.0858Z" fill="#CCE9FF"/>
<path d="M14.9 36.5H82.1" stroke="#0090FF" stroke-width="4" stroke-linecap="round" stroke-linejoin="round"/>
<path d="M14.5 60.5H36.5" stroke="#0090FF" stroke-width="4" stroke-linecap="round" stroke-linejoin="round"/>
<path d="M46.5 12.5C39.7614 23.2984 36.1888 35.7715 36.1888 48.5C36.1888 61.2285 39.7614 73.7016 46.5 84.5" stroke="#0090FF" stroke-width="4" stroke-linecap="round" stroke-linejoin="round"/>
<path d="M50.1888 12.5C56.9275 23.2984 60.5 35.7715 60.5 48.5C60.5 52.5409 60.1399 56.556 59.4328 60.5H36.5" stroke="#0090FF" stroke-width="4" stroke-linecap="round" stroke-linejoin="round"/>
<path d="M84.216 53.024C85.135 45.769 83.8227 38.4061 80.4537 31.9154C77.0847 25.4246 71.8188 20.1138 65.3569 16.6898C58.8951 13.2658 51.5436 11.891 44.281 12.7483C37.0185 13.6056 30.1892 16.6544 24.7022 21.4889C19.2152 26.3235 15.3307 32.7144 13.5657 39.8112C11.8006 46.908 12.2388 54.3741 14.8218 61.2157C17.4049 68.0573 22.0103 73.95 28.0252 78.1096C34.04 82.2691 41.179 84.4981 48.492 84.5" stroke="#5CB8FF" stroke-width="4" stroke-linecap="round" stroke-linejoin="round"/>
<path d="M88.5 88.5L68.5 68.5" stroke="#FF4824" stroke-width="4" stroke-linecap="round" stroke-linejoin="round"/>
<path d="M68.5 88.5L88.5 68.5" stroke="#FF4824" stroke-width="4" stroke-linecap="round" stroke-linejoin="round"/>
</svg>
