<svg width="145" height="145" viewBox="0 0 145 145" fill="none" xmlns="http://www.w3.org/2000/svg">
<rect x="0.5" y="0.5" width="144" height="144" rx="72" fill="#F4F8FC"/>
<path fill-rule="evenodd" clip-rule="evenodd" d="M51.702 45.5H45.5C42.8478 45.5 40.3043 46.5536 38.4289 48.4289C36.5536 50.3043 35.5 52.8478 35.5 55.5V103.5C35.5 106.152 36.5536 108.696 38.4289 110.571C40.3043 112.446 42.8478 113.5 45.5 113.5H68.288C69.3926 113.5 70.288 112.605 70.288 111.5C70.288 110.395 69.3926 109.5 68.288 109.5H45.5C43.9087 109.5 42.3826 108.868 41.2574 107.743C40.1321 106.617 39.5 105.091 39.5 103.5V55.5C39.5 53.9087 40.1321 52.3826 41.2574 51.2574C42.3826 50.1321 43.9087 49.5 45.5 49.5H51.702C52.0913 51.4069 53.0322 53.1743 54.4289 54.5711C56.3043 56.4464 58.8478 57.5 61.5 57.5H69.5C72.1522 57.5 74.6957 56.4464 76.5711 54.5711C77.9678 53.1743 78.9087 51.4069 79.298 49.5H85.5C87.0913 49.5 88.6174 50.1321 89.7426 51.2574C90.8679 52.3826 91.5 53.9087 91.5 55.5V75.5C91.5 76.6046 92.3954 77.5 93.5 77.5C94.6046 77.5 95.5 76.6046 95.5 75.5V55.5C95.5 52.8478 94.4464 50.3043 92.5711 48.4289C90.6957 46.5536 88.1522 45.5 85.5 45.5H79.298C78.9087 43.5931 77.9678 41.8257 76.5711 40.4289C74.6957 38.5536 72.1522 37.5 69.5 37.5H61.5C58.8478 37.5 56.3043 38.5536 54.4289 40.4289C53.0322 41.8257 52.0913 43.5931 51.702 45.5ZM57.2574 43.2574C58.3826 42.1321 59.9087 41.5 61.5 41.5H69.5C71.0913 41.5 72.6174 42.1321 73.7426 43.2574C74.8679 44.3826 75.5 45.9087 75.5 47.5C75.5 49.0913 74.8679 50.6174 73.7426 51.7426C72.6174 52.8679 71.0913 53.5 69.5 53.5H61.5C59.9087 53.5 58.3826 52.8679 57.2574 51.7426C56.1321 50.6174 55.5 49.0913 55.5 47.5C55.5 45.9087 56.1321 44.3826 57.2574 43.2574Z" fill="#CCE9FF"/>
<path d="M51.5 71.5C51.5 70.3954 52.3954 69.5 53.5 69.5H69.5C70.6046 69.5 71.5 70.3954 71.5 71.5C71.5 72.6046 70.6046 73.5 69.5 73.5H53.5C52.3954 73.5 51.5 72.6046 51.5 71.5Z" fill="#CCE9FF"/>
<path d="M53.5 85.5C52.3954 85.5 51.5 86.3954 51.5 87.5C51.5 88.6046 52.3954 89.5 53.5 89.5H65.5C66.6046 89.5 67.5 88.6046 67.5 87.5C67.5 86.3954 66.6046 85.5 65.5 85.5H53.5Z" fill="#CCE9FF"/>
<path fill-rule="#F4F8FC" clip-rule="evenodd" d="M79.0147 89.0147C81.2652 86.7643 84.3174 85.5 87.5 85.5C90.6826 85.5 93.7348 86.7643 95.9853 89.0147C98.2357 91.2652 99.5 94.3174 99.5 97.5C99.5 100.008 98.7149 102.435 97.2809 104.452L106.914 114.086C107.695 114.867 107.695 116.133 106.914 116.914C106.133 117.695 104.867 117.695 104.086 116.914L94.4524 107.281C92.4349 108.715 90.0079 109.5 87.5 109.5C84.3174 109.5 81.2652 108.236 79.0147 105.985C76.7643 103.735 75.5 100.683 75.5 97.5C75.5 94.3174 76.7643 91.2652 79.0147 89.0147ZM87.5 89.5C85.3783 89.5 83.3434 90.3429 81.8431 91.8431C80.3429 93.3434 79.5 95.3783 79.5 97.5C79.5 99.6217 80.3429 101.657 81.8431 103.157C83.3434 104.657 85.3783 105.5 87.5 105.5C89.6217 105.5 91.6566 104.657 93.1569 103.157C94.6571 101.657 95.5 99.6217 95.5 97.5C95.5 95.3783 94.6571 93.3434 93.1569 91.8431C91.6566 90.3429 89.6217 89.5 87.5 89.5Z" fill="#CCE9FF"/>
<path d="M61.5 39.5H53.5C51.3783 39.5 49.3434 40.3429 47.8431 41.8431C46.3429 43.3434 45.5 45.3783 45.5 47.5V95.5C45.5 97.6217 46.3429 99.6566 47.8431 101.157C49.3434 102.657 51.3783 103.5 53.5 103.5H76.288" stroke="#5CB8FF" stroke-width="4" stroke-linecap="round" stroke-linejoin="round"/>
<path d="M101.5 67.5V47.5C101.5 45.3783 100.657 43.3434 99.1569 41.8431C97.6566 40.3429 95.6217 39.5 93.5 39.5H85.5" stroke="#5CB8FF" stroke-width="4" stroke-linecap="round" stroke-linejoin="round"/>
<path d="M61.5 39.5C61.5 37.3783 62.3429 35.3434 63.8431 33.8431C65.3434 32.3429 67.3783 31.5 69.5 31.5H77.5C79.6217 31.5 81.6566 32.3429 83.1569 33.8431C84.6571 35.3434 85.5 37.3783 85.5 39.5C85.5 41.6217 84.6571 43.6566 83.1569 45.1569C81.6566 46.6571 79.6217 47.5 77.5 47.5H69.5C67.3783 47.5 65.3434 46.6571 63.8431 45.1569C62.3429 43.6566 61.5 41.6217 61.5 39.5Z" stroke="#5CB8FF" stroke-width="4" stroke-linecap="round" stroke-linejoin="round"/>
<path d="M61.5 63.5H77.5" stroke="#0090FF" stroke-width="4" stroke-linecap="round" stroke-linejoin="round"/>
<path d="M61.5 79.5H73.5" stroke="#0090FF" stroke-width="4" stroke-linecap="round" stroke-linejoin="round"/>
<path d="M85.5 89.5C85.5 92.1522 86.5536 94.6957 88.4289 96.5711C90.3043 98.4464 92.8478 99.5 95.5 99.5C98.1522 99.5 100.696 98.4464 102.571 96.5711C104.446 94.6957 105.5 92.1522 105.5 89.5C105.5 86.8478 104.446 84.3043 102.571 82.4289C100.696 80.5536 98.1522 79.5 95.5 79.5C92.8478 79.5 90.3043 80.5536 88.4289 82.4289C86.5536 84.3043 85.5 86.8478 85.5 89.5Z" stroke="#0090FF" stroke-width="4" stroke-linecap="round" stroke-linejoin="round"/>
<path d="M103.5 97.5L113.5 107.5" stroke="#0090FF" stroke-width="4" stroke-linecap="round" stroke-linejoin="round"/>
</svg>
