<svg width="25" height="25" viewBox="0 0 25 25" fill="none" xmlns="http://www.w3.org/2000/svg">
<path d="M12.5 16.5C14.1569 16.5 15.5 15.1569 15.5 13.5C15.5 11.8431 14.1569 10.5 12.5 10.5C10.8431 10.5 9.5 11.8431 9.5 13.5C9.5 15.1569 10.8431 16.5 12.5 16.5Z" fill="#0090FF"/>
<path fill-rule="evenodd" clip-rule="evenodd" d="M15.5 3.5C16.0046 3.49984 16.4906 3.69041 16.8605 4.0335C17.2305 4.37659 17.4572 4.84684 17.495 5.35L17.5 5.5C17.5 5.74493 17.59 5.98134 17.7527 6.16437C17.9155 6.34741 18.1397 6.46434 18.383 6.493L18.5 6.5H19.5C20.2652 6.49996 21.0015 6.79233 21.5583 7.31728C22.115 7.84224 22.4501 8.56011 22.495 9.324L22.5 9.5V18.5C22.5 19.2652 22.2077 20.0015 21.6827 20.5583C21.1578 21.115 20.4399 21.4501 19.676 21.495L19.5 21.5H5.5C4.73479 21.5 3.99849 21.2077 3.44174 20.6827C2.88499 20.1578 2.54989 19.4399 2.505 18.676L2.5 18.5V9.5C2.49996 8.73479 2.79233 7.99849 3.31728 7.44174C3.84224 6.88499 4.56011 6.54989 5.324 6.505L5.5 6.5H6.5C6.76522 6.5 7.01957 6.39464 7.20711 6.20711C7.39464 6.01957 7.5 5.76522 7.5 5.5C7.49984 4.99542 7.69041 4.50943 8.0335 4.13945C8.37659 3.76947 8.84685 3.54284 9.35 3.505L9.5 3.5H15.5ZM17.5 13.5C17.5 16.2614 15.2614 18.5 12.5 18.5C9.73858 18.5 7.5 16.2614 7.5 13.5C7.5 10.7386 9.73858 8.5 12.5 8.5C15.2614 8.5 17.5 10.7386 17.5 13.5Z" fill="#0090FF"/>
</svg>
