<svg width="21" height="15" viewBox="0 0 21 15" fill="none" xmlns="http://www.w3.org/2000/svg">
<path fill-rule="evenodd" clip-rule="evenodd"
        d="M3.75 0C3.3411 0 2.97339 0.248951 2.82152 0.628609L0.821523 5.62861C0.774275 5.74673 0.75 5.87278 0.75 6V12C0.75 12.5523 1.19772 13 1.75 13H2.92157C3.06933 13.4179 3.30927 13.8019 3.62868 14.1213C4.19129 14.6839 4.95435 15 5.75 15C6.54565 15 7.30871 14.6839 7.87132 14.1213C8.19072 13.8019 8.43067 13.4179 8.57843 13H12.9216C13.0693 13.4179 13.3093 13.8019 13.6287 14.1213C14.1913 14.6839 14.9543 15 15.75 15C16.5457 15 17.3087 14.6839 17.8713 14.1213C18.1907 13.8019 18.4307 13.4179 18.5784 13H19.75C20.3023 13 20.75 12.5523 20.75 12V8C20.75 7.20435 20.4339 6.44129 19.8713 5.87868C19.3087 5.31607 18.5457 5 17.75 5H17.2306L13.5309 0.375305C13.3411 0.13809 13.0538 0 12.75 0H3.75ZM18.5784 11H18.75V8C18.75 7.73478 18.6446 7.48043 18.4571 7.29289C18.2696 7.10536 18.0152 7 17.75 7H2.75V11H2.92157C3.06933 10.5821 3.30927 10.1981 3.62868 9.87868C4.19129 9.31607 4.95435 9 5.75 9C6.54565 9 7.30871 9.31607 7.87132 9.87868C8.19072 10.1981 8.43067 10.5821 8.57843 11H12.9216C13.0693 10.5821 13.3093 10.1981 13.6287 9.87868C14.1913 9.31607 14.9543 9 15.75 9C16.5457 9 17.3087 9.31607 17.8713 9.87868C18.1907 10.1981 18.4307 10.5821 18.5784 11ZM14.75 12C14.75 12.2652 14.8554 12.5196 15.0429 12.7071C15.2304 12.8946 15.4848 13 15.75 13C16.0152 13 16.2696 12.8946 16.4571 12.7071C16.6446 12.5196 16.75 12.2652 16.75 12C16.75 11.7348 16.6446 11.4804 16.4571 11.2929C16.2696 11.1054 16.0152 11 15.75 11C15.4848 11 15.2304 11.1054 15.0429 11.2929C14.8554 11.4804 14.75 11.7348 14.75 12ZM6.75 12C6.75 11.7348 6.64464 11.4804 6.45711 11.2929C6.26957 11.1054 6.01522 11 5.75 11C5.48478 11 5.23043 11.1054 5.04289 11.2929C4.85536 11.4804 4.75 11.7348 4.75 12C4.75 12.2652 4.85536 12.5196 5.04289 12.7071C5.23043 12.8946 5.48478 13 5.75 13C6.01522 13 6.26957 12.8946 6.45711 12.7071C6.64464 12.5196 6.75 12.2652 6.75 12ZM9.75 5H3.22703L4.42703 2H9.75V5ZM11.75 5V2H12.2694L14.6694 5H11.75Z"
        fill="currentColor" />
<path
        d="M18.5784 11H18.75V8C18.75 7.73478 18.6446 7.48043 18.4571 7.29289C18.2696 7.10536 18.0152 7 17.75 7H2.75V11H2.92157C3.06933 10.5821 3.30927 10.1981 3.62868 9.87868C4.19129 9.31607 4.95435 9 5.75 9C6.54565 9 7.30871 9.31607 7.87132 9.87868C8.19072 10.1981 8.43067 10.5821 8.57843 11H12.9216C13.0693 10.5821 13.3093 10.1981 13.6287 9.87868C14.1913 9.31607 14.9543 9 15.75 9C16.5457 9 17.3087 9.31607 17.8713 9.87868C18.1907 10.1981 18.4307 10.5821 18.5784 11Z"
        fill="currentColor" />
</svg>
