<svg width="21" height="20" viewBox="0 0 21 20" fill="none" xmlns="http://www.w3.org/2000/svg">
<path
        d="M13.25 7C13.25 8.65685 11.9069 10 10.25 10C8.59315 10 7.25 8.65685 7.25 7C7.25 5.34315 8.59315 4 10.25 4C11.9069 4 13.25 5.34315 13.25 7Z"
        fill="currentColor" />
<path fill-rule="evenodd" clip-rule="evenodd"
        d="M10.25 0C8.93678 0 7.63642 0.258658 6.42317 0.761205C5.20991 1.26375 4.10752 2.00035 3.17893 2.92893C2.25035 3.85752 1.51375 4.95991 1.0112 6.17317C0.508657 7.38642 0.25 8.68678 0.25 10C0.25 11.3132 0.508657 12.6136 1.0112 13.8268C1.51375 15.0401 2.25035 16.1425 3.17893 17.0711C4.10752 17.9997 5.20991 18.7362 6.42317 19.2388C7.63642 19.7413 8.93678 20 10.25 20C11.5632 20 12.8636 19.7413 14.0768 19.2388C15.0232 18.8468 15.902 18.3124 16.6836 17.6556C16.7167 17.6308 16.7481 17.6041 16.7776 17.5757C16.9647 17.4145 17.146 17.2462 17.3211 17.0711C18.2497 16.1425 18.9862 15.0401 19.4888 13.8268C19.9913 12.6136 20.25 11.3132 20.25 10C20.25 8.68678 19.9913 7.38642 19.4888 6.17317C18.9862 4.95991 18.2497 3.85752 17.3211 2.92893C16.3925 2.00035 15.2901 1.26375 14.0768 0.761205C12.8636 0.258658 11.5632 0 10.25 0ZM16.7045 14.7265C17.0812 14.2121 17.3959 13.6533 17.641 13.0615C18.0431 12.0909 18.25 11.0506 18.25 10C18.25 8.94942 18.0431 7.90914 17.641 6.93853C17.239 5.96793 16.6497 5.08602 15.9069 4.34315C15.164 3.60028 14.2821 3.011 13.3115 2.60896C12.3409 2.20693 11.3006 2 10.25 2C9.19942 2 8.15914 2.20693 7.18853 2.60896C6.21793 3.011 5.33601 3.60028 4.59315 4.34315C3.85028 5.08601 3.261 5.96793 2.85896 6.93853C2.45693 7.90914 2.25 8.94942 2.25 10C2.25 11.0506 2.45693 12.0909 2.85896 13.0615C3.1041 13.6533 3.41885 14.2121 3.79558 14.7266C4.62329 13.108 6.30724 12 8.25003 12H12.25C14.1928 12 15.8767 13.108 16.7045 14.7265Z"
        fill="currentColor" />
</svg>
